Coordinates
nRows=14
nColumns=24

# SIMM Motion File Header:
name Coordinates
datacolumns 24
datarows 14
otherdata 1
range 0.60133000000000003000 0.61433000000000004000
endheader
time	pelvis_tx	pelvis_ty	pelvis_tz	pelvis_tilt	pelvis_list	pelvis_rotation	hip_flexion_r	hip_adduction_r	hip_rotation_r	knee_angle_r	ankle_angle_r	subtalar_angle_r	mtp_angle_r	hip_flexion_l	hip_adduction_l	hip_rotation_l	knee_angle_l	ankle_angle_l	subtalar_angle_l	mtp_angle_l	lumbar_extension	lumbar_bending	lumbar_rotation
      0.60133000000000003000	      1.86625965480002170000	      0.70619226988789530000	     -0.19115053520812722000	     -3.42016333669100670000	      3.97008203208833080000	     -0.74425197286511591000	    -18.39465685440444200000	     -3.34279536972245990000	     -0.46054533081140231000	    -26.33659494680391000000	    -19.47439776941196500000	     -0.00000000000015956179	     -0.00000000000010878071	     32.76968868287979600000	      6.04573870030759150000	     -4.29354828398543820000	    -21.33474133578527400000	     -8.46557507221013240000	     -0.00000000000002979378	     -0.00000000000035708481	     -1.93234856651510720000	     -8.44312807649444960000	      8.86008038551082680000
      0.60233000000000003000	      1.86774984366770960000	      0.70637285102558678000	     -0.19137136644767624000	     -3.42506026259382560000	      4.01323387550305630000	     -0.71359752734324822000	    -18.24067832766128900000	     -3.42430938842067300000	     -0.46830297725799824000	    -26.66445072613086300000	    -19.75663962386262200000	     -0.00000000000015992826	     -0.00000000000010915378	     32.69521811017033000000	      6.14068683601127500000	     -4.21581490945100250000	    -21.42343906904475400000	     -8.37820361628562620000	     -0.00000000000002999545	     -0.00000000000035887190	     -1.92484141496081930000	     -8.47810714798291800000	      8.81476170855473380000
      0.60333000000000003000	      1.86924003253539770000	      0.70655343216327837000	     -0.19159219768722527000	     -3.42995718849664490000	      4.05638571891778100000	     -0.68294308182138075000	    -18.08669980091813300000	     -3.50582340711888560000	     -0.47606062370459395000	    -26.99230650545781200000	    -20.03888147831327500000	     -0.00000000000016029472	     -0.00000000000010952686	     32.62074753746086500000	      6.23563497171495840000	     -4.13808153491656580000	    -21.51213680230423000000	     -8.29083216036111990000	     -0.00000000000003019712	     -0.00000000000036065900	     -1.91733426340653130000	     -8.51308621947138460000	      8.76944303159863910000
      0.60433000000000003000	      1.87071872417052390000	      0.70673657734268236000	     -0.19180948839485035000	     -3.43729078465720140000	      4.09609677382021880000	     -0.65387437981673546000	    -17.92443396791974300000	     -3.58436295810293610000	     -0.48225805187443599000	    -27.32357446736341800000	    -20.30153652311722500000	     -0.00000000000016066370	     -0.00000000000010981483	     32.54595479157037400000	      6.32582602237511080000	     -4.06150864298392110000	    -21.59649986561694500000	     -8.19292006783298450000	     -0.00000000000003035967	     -0.00000000000036258281	     -1.90810107322995970000	     -8.54364679287676590000	      8.72511979255206600000
      0.60533000000000003000	      1.87219741580565000000	      0.70691972252208624000	     -0.19202677910247543000	     -3.44462438081775790000	      4.13580782872265740000	     -0.62480567781209029000	    -17.76216813492135700000	     -3.66290250908698710000	     -0.48845548004427802000	    -27.65484242926902100000	    -20.56419156792117400000	     -0.00000000000016103268	     -0.00000000000011010281	     32.47116204567988300000	      6.41601707303526240000	     -3.98493575105127680000	    -21.68086292892966300000	     -8.09500797530484920000	     -0.00000000000003052222	     -0.00000000000036450663	     -1.89886788305338810000	     -8.57420736628214900000	      8.68079655350549120000
      0.60633000000000004000	      1.87367015323164020000	      0.70710468218926503000	     -0.19224195871958266000	     -3.45270956300142110000	      4.17370665828075270000	     -0.59659300998209663000	    -17.59615354136266100000	     -3.73978258847038170000	     -0.49386548204540404000	    -27.98804122179138400000	    -20.81723334182726500000	     -0.00000000000016141385	     -0.00000000000011035419	     32.39567038982300300000	      6.50365947913116750000	     -3.90899312064945730000	    -21.76279616223268200000	     -7.99305360083048470000	     -0.00000000000003064636	     -0.00000000000036645385	     -1.88932425291555720000	     -8.60253675590016440000	      8.63702497447259350000
      0.60733000000000004000	      1.87513693644849470000	      0.70729145634421842000	     -0.19245502724617206000	     -3.46154633120819000000	      4.20979326249450740000	     -0.56923637632675328000	    -17.42639018724366900000	     -3.81500319625312300000	     -0.49848805787781530000	    -28.32317084493050500000	    -21.06066184483551900000	     -0.00000000000016180723	     -0.00000000000011056898	     32.31947982399973500000	      6.58875324066282970000	     -3.83368075177846190000	    -21.84229956552600900000	     -7.88705694440989810000	     -0.00000000000003073210	     -0.00000000000036842446	     -1.87947018281646770000	     -8.62863496173081930000	      8.59380505545337140000
      0.60833000000000004000	      1.87660371966534890000	      0.70747823049917191000	     -0.19266809577276142000	     -3.47038309941495940000	      4.24587986670826110000	     -0.54187974267141081000	    -17.25662683312467400000	     -3.89022380403586210000	     -0.50311063371022591000	    -28.65830046806962600000	    -21.30409034784376100000	     -0.00000000000016220060	     -0.00000000000011078376	     32.24328925817647500000	      6.67384700219448930000	     -3.75836838290746740000	    -21.92180296881933200000	     -7.78106028798930890000	     -0.00000000000003081783	     -0.00000000000037039508	     -1.86961611271737850000	     -8.65473316756147250000	      8.55058513643414920000
      0.60933000000000004000	      1.87806084109616480000	      0.70766897065970102000	     -0.19287750656819450000	     -3.47949166690839280000	      4.27922877717000460000	     -0.51584579435532352000	    -17.08193717329295700000	     -3.96285525065243680000	     -0.50683914053861334000	    -28.99631461682452400000	    -21.53346700745192200000	     -0.00000000000016255844	     -0.00000000000011095616	     32.16501084298892700000	      6.75497449995338610000	     -3.68425554499166190000	    -21.99724877068776200000	     -7.67143746280498370000	     -0.00000000000003092173	     -0.00000000000037227184	     -1.86037046428233710000	     -8.67756310002834570000	      8.50814223546257690000
      0.61033000000000004000	      1.87951297892813570000	      0.70786153257564677000	     -0.19308493476311409000	     -3.48889323246274460000	      4.31106095138582560000	     -0.49044371682222282000	    -16.90454922137901400000	     -4.03395681307176890000	     -0.51013797234338820000	    -29.33594409612689800000	    -21.75525694639328500000	     -0.00000000000016290029	     -0.00000000000011105322	     32.08592599532218500000	      6.83391343018506170000	     -3.61087662444480890000	    -22.07066607653352700000	     -7.56140719606336730000	     -0.00000000000003103602	     -0.00000000000037419678	     -1.85124619125768190000	     -8.69863636450845770000	      8.46609810188118320000
      0.61133000000000004000	      1.88096013316126240000	      0.70805591624700925000	     -0.19329038035752022000	     -3.49858779607801470000	      4.34137638935572220000	     -0.46567351007210950000	    -16.72446297738283900000	     -4.10352849129385520000	     -0.51300712912454993000	    -29.67718890597675600000	    -21.96946016466784400000	     -0.00000000000016322617	     -0.00000000000011107494	     32.00603471517624900000	      6.91066379288951450000	     -3.53823162126690920000	    -22.14205488635663200000	     -7.45096948776445970000	     -0.00000000000003116071	     -0.00000000000037616989	     -1.84224329364341300000	     -8.71795296100180650000	      8.42445273568996990000
      0.61233000000000004000	      1.88240728739438890000	      0.70825029991837174000	     -0.19349582595192633000	     -3.50828235969328440000	      4.37169182732561980000	     -0.44090330332199618000	    -16.54437673338666700000	     -4.17310016951594240000	     -0.51587628590571177000	    -30.01843371582661400000	    -22.18366338294240200000	     -0.00000000000016355204	     -0.00000000000011109665	     31.92614343503031200000	      6.98741415559396640000	     -3.46558661808900940000	    -22.21344369617973400000	     -7.34053177946555200000	     -0.00000000000003128540	     -0.00000000000037814300	     -1.83324039602914390000	     -8.73726955749515350000	      8.38280736949875660000
      0.61333000000000004000	      1.88384171322751600000	      0.70844834936862344000	     -0.19369564820943708000	     -3.51958872901264110000	      4.39789184409160240000	     -0.41794316868481379000	    -16.35631675369787500000	     -4.23840865738036050000	     -0.51754852429574427000	    -30.36436299518007700000	    -22.37610053072105400000	     -0.00000000000016388959	     -0.00000000000011111896	     31.84509528427223700000	      7.05801044955204930000	     -3.39594656740452330000	    -22.27912198981874800000	     -7.23138594019197890000	     -0.00000000000003137007	     -0.00000000000038032217	     -1.82342795070687250000	     -8.75192955093106840000	      8.34253763932897390000
      0.61433000000000004000	      1.88527613906064340000	      0.70864639881887526000	     -0.19389547046694786000	     -3.53089509833199820000	      4.42409186085758500000	     -0.39498303404763146000	    -16.16825677400908000000	     -4.30371714524477780000	     -0.51922076268577666000	    -30.71029227453354000000	    -22.56853767849970500000	     -0.00000000000016422714	     -0.00000000000011114127	     31.76404713351416500000	      7.12860674351013120000	     -3.32630651672003720000	    -22.34480028345776100000	     -7.12224010091840580000	     -0.00000000000003145474	     -0.00000000000038250134	     -1.81361550538460080000	     -8.76658954436698500000	      8.30226790915919110000
